<?xml version="1.0" standalone="no"?><svg xmlns="http://www.w3.org/2000/svg" viewBox="0 0 1440 320"><path fill="#0a192f" fill-opacity="1" d="M0,0L40,32C80,64,160,128,240,165.3C320,203,400,213,480,218.7C560,224,640,224,720,234.7C800,245,880,267,960,256C1040,245,1120,203,1200,176C1280,149,1360,139,1400,133.3L1440,128L1440,320L1400,320C1360,320,1280,320,1200,320C1120,320,1040,320,960,320C880,320,800,320,720,320C640,320,560,320,480,320C400,320,320,320,240,320C160,320,80,320,40,320L0,320Z"></path></svg>